<svg width="93" height="20" viewBox="0 0 93 20" fill="none" xmlns="http://www.w3.org/2000/svg">
<path d="M0.113636 19V1.54545H6.01136C7.38068 1.54545 8.5 1.79261 9.36932 2.28693C10.2443 2.77557 10.892 3.4375 11.3125 4.27273C11.733 5.10795 11.9432 6.03977 11.9432 7.06818C11.9432 8.09659 11.733 9.03125 11.3125 9.87216C10.8977 10.7131 10.2557 11.3835 9.38636 11.8835C8.51705 12.3778 7.40341 12.625 6.04545 12.625H1.81818V10.75H5.97727C6.91477 10.75 7.66761 10.5881 8.2358 10.2642C8.80398 9.94034 9.21591 9.50284 9.47159 8.9517C9.73295 8.39489 9.86364 7.76705 9.86364 7.06818C9.86364 6.36932 9.73295 5.74432 9.47159 5.19318C9.21591 4.64205 8.80114 4.21023 8.22727 3.89773C7.65341 3.57955 6.89205 3.42045 5.94318 3.42045H2.22727V19H0.113636ZM20.2528 19.2727C19.071 19.2727 18.0341 18.9915 17.142 18.429C16.2557 17.8665 15.5625 17.0795 15.0625 16.0682C14.5682 15.0568 14.321 13.875 14.321 12.5227C14.321 11.1591 14.5682 9.96875 15.0625 8.9517C15.5625 7.93466 16.2557 7.14489 17.142 6.58239C18.0341 6.01989 19.071 5.73864 20.2528 5.73864C21.4347 5.73864 22.4688 6.01989 23.3551 6.58239C24.2472 7.14489 24.9403 7.93466 25.4347 8.9517C25.9347 9.96875 26.1847 11.1591 26.1847 12.5227C26.1847 13.875 25.9347 15.0568 25.4347 16.0682C24.9403 17.0795 24.2472 17.8665 23.3551 18.429C22.4688 18.9915 21.4347 19.2727 20.2528 19.2727ZM20.2528 17.4659C21.1506 17.4659 21.8892 17.2358 22.4688 16.7756C23.0483 16.3153 23.4773 15.7102 23.7557 14.9602C24.0341 14.2102 24.1733 13.3977 24.1733 12.5227C24.1733 11.6477 24.0341 10.8324 23.7557 10.0767C23.4773 9.32102 23.0483 8.71023 22.4688 8.24432C21.8892 7.77841 21.1506 7.54545 20.2528 7.54545C19.3551 7.54545 18.6165 7.77841 18.0369 8.24432C17.4574 8.71023 17.0284 9.32102 16.75 10.0767C16.4716 10.8324 16.3324 11.6477 16.3324 12.5227C16.3324 13.3977 16.4716 14.2102 16.75 14.9602C17.0284 15.7102 17.4574 16.3153 18.0369 16.7756C18.6165 17.2358 19.3551 17.4659 20.2528 17.4659ZM29.255 19V5.90909H31.1982V7.88636H31.3345C31.5732 7.23864 32.005 6.71307 32.63 6.30966C33.255 5.90625 33.9595 5.70454 34.7436 5.70454C34.8913 5.70454 35.076 5.70739 35.2976 5.71307C35.5192 5.71875 35.6868 5.72727 35.8004 5.73864V7.78409C35.7322 7.76705 35.576 7.74148 35.3317 7.70739C35.093 7.66761 34.8402 7.64773 34.5732 7.64773C33.9368 7.64773 33.3686 7.78125 32.8686 8.0483C32.3743 8.30966 31.9822 8.6733 31.6925 9.1392C31.4084 9.59943 31.2663 10.125 31.2663 10.7159V19H29.255ZM44.6982 5.90909V7.61364H37.9141V5.90909H44.6982ZM39.8913 2.77273H41.9027V15.25C41.9027 15.8182 41.9851 16.2443 42.1499 16.5284C42.3203 16.8068 42.5362 16.9943 42.7976 17.0909C43.0646 17.1818 43.3459 17.2273 43.6413 17.2273C43.8629 17.2273 44.0447 17.2159 44.1868 17.1932C44.3288 17.1648 44.4425 17.142 44.5277 17.125L44.9368 18.9318C44.8004 18.983 44.6101 19.0341 44.3658 19.0852C44.1214 19.142 43.8118 19.1705 43.4368 19.1705C42.8686 19.1705 42.3118 19.0483 41.7663 18.804C41.2266 18.5597 40.7777 18.1875 40.4197 17.6875C40.0675 17.1875 39.8913 16.5568 39.8913 15.7955V2.77273ZM53.5533 5.90909V7.61364H46.4964V5.90909H53.5533ZM48.6101 19V4.10227C48.6101 3.35227 48.7862 2.72727 49.1385 2.22727C49.4908 1.72727 49.9482 1.35227 50.5107 1.10227C51.0732 0.852272 51.6669 0.727272 52.2919 0.727272C52.7862 0.727272 53.1896 0.767045 53.5021 0.846591C53.8146 0.926136 54.0476 0.999999 54.201 1.06818L53.6214 2.80682C53.5192 2.77273 53.3771 2.73011 53.1953 2.67898C53.0192 2.62784 52.7862 2.60227 52.4964 2.60227C51.8317 2.60227 51.3516 2.76989 51.0561 3.10511C50.7663 3.44034 50.6214 3.93182 50.6214 4.57954V19H48.6101ZM61.1513 19.2727C59.9695 19.2727 58.9325 18.9915 58.0405 18.429C57.1541 17.8665 56.4609 17.0795 55.9609 16.0682C55.4666 15.0568 55.2195 13.875 55.2195 12.5227C55.2195 11.1591 55.4666 9.96875 55.9609 8.9517C56.4609 7.93466 57.1541 7.14489 58.0405 6.58239C58.9325 6.01989 59.9695 5.73864 61.1513 5.73864C62.3331 5.73864 63.3672 6.01989 64.2536 6.58239C65.1456 7.14489 65.8388 7.93466 66.3331 8.9517C66.8331 9.96875 67.0831 11.1591 67.0831 12.5227C67.0831 13.875 66.8331 15.0568 66.3331 16.0682C65.8388 17.0795 65.1456 17.8665 64.2536 18.429C63.3672 18.9915 62.3331 19.2727 61.1513 19.2727ZM61.1513 17.4659C62.049 17.4659 62.7876 17.2358 63.3672 16.7756C63.9467 16.3153 64.3757 15.7102 64.6541 14.9602C64.9325 14.2102 65.0717 13.3977 65.0717 12.5227C65.0717 11.6477 64.9325 10.8324 64.6541 10.0767C64.3757 9.32102 63.9467 8.71023 63.3672 8.24432C62.7876 7.77841 62.049 7.54545 61.1513 7.54545C60.2536 7.54545 59.5149 7.77841 58.9354 8.24432C58.3558 8.71023 57.9268 9.32102 57.6484 10.0767C57.37 10.8324 57.2308 11.6477 57.2308 12.5227C57.2308 13.3977 57.37 14.2102 57.6484 14.9602C57.9268 15.7102 58.3558 16.3153 58.9354 16.7756C59.5149 17.2358 60.2536 17.4659 61.1513 17.4659ZM72.1648 1.54545V19H70.1534V1.54545H72.1648ZM75.8487 19V5.90909H77.8601V19H75.8487ZM76.8714 3.72727C76.4794 3.72727 76.1413 3.59375 75.8572 3.3267C75.5788 3.05966 75.4396 2.73864 75.4396 2.36364C75.4396 1.98864 75.5788 1.66761 75.8572 1.40057C76.1413 1.13352 76.4794 1 76.8714 1C77.2635 1 77.5987 1.13352 77.8771 1.40057C78.1612 1.66761 78.3033 1.98864 78.3033 2.36364C78.3033 2.73864 78.1612 3.05966 77.8771 3.3267C77.5987 3.59375 77.2635 3.72727 76.8714 3.72727ZM86.8622 19.2727C85.6804 19.2727 84.6435 18.9915 83.7514 18.429C82.8651 17.8665 82.1719 17.0795 81.6719 16.0682C81.1776 15.0568 80.9304 13.875 80.9304 12.5227C80.9304 11.1591 81.1776 9.96875 81.6719 8.9517C82.1719 7.93466 82.8651 7.14489 83.7514 6.58239C84.6435 6.01989 85.6804 5.73864 86.8622 5.73864C88.044 5.73864 89.0781 6.01989 89.9645 6.58239C90.8565 7.14489 91.5497 7.93466 92.044 8.9517C92.544 9.96875 92.794 11.1591 92.794 12.5227C92.794 13.875 92.544 15.0568 92.044 16.0682C91.5497 17.0795 90.8565 17.8665 89.9645 18.429C89.0781 18.9915 88.044 19.2727 86.8622 19.2727ZM86.8622 17.4659C87.7599 17.4659 88.4986 17.2358 89.0781 16.7756C89.6577 16.3153 90.0866 15.7102 90.3651 14.9602C90.6435 14.2102 90.7827 13.3977 90.7827 12.5227C90.7827 11.6477 90.6435 10.8324 90.3651 10.0767C90.0866 9.32102 89.6577 8.71023 89.0781 8.24432C88.4986 7.77841 87.7599 7.54545 86.8622 7.54545C85.9645 7.54545 85.2259 7.77841 84.6463 8.24432C84.0668 8.71023 83.6378 9.32102 83.3594 10.0767C83.081 10.8324 82.9418 11.6477 82.9418 12.5227C82.9418 13.3977 83.081 14.2102 83.3594 14.9602C83.6378 15.7102 84.0668 16.3153 84.6463 16.7756C85.2259 17.2358 85.9645 17.4659 86.8622 17.4659Z" fill="black"/>
</svg>
